<svg width="257" height="75" viewBox="0 0 257 75" fill="none" xmlns="http://www.w3.org/2000/svg">
<path fill-rule="evenodd" clip-rule="evenodd" d="M113.778 35C113.778 35.27 113.758 35.53 113.728 35.78L115.398 37.1C115.558 37.22 115.598 37.43 115.498 37.61L113.898 40.38C113.798 40.56 113.588 40.63 113.408 40.56L111.418 39.76C111.008 40.07 110.558 40.34 110.068 40.54L109.768 42.66C109.748 42.86 109.578 43 109.378 43H106.178C105.978 43 105.818 42.86 105.778 42.66L105.478 40.54C104.988 40.34 104.548 40.08 104.128 39.76L102.138 40.56C101.958 40.62 101.748 40.56 101.648 40.38L100.048 37.61C99.9576 37.44 99.9976 37.22 100.148 37.1L101.838 35.78C101.798 35.53 101.778 35.26 101.778 35C101.778 34.74 101.808 34.47 101.848 34.22L100.158 32.9C99.9976 32.78 99.9576 32.57 100.058 32.39L101.658 29.62C101.758 29.44 101.968 29.37 102.148 29.44L104.138 30.24C104.548 29.93 104.998 29.66 105.488 29.46L105.788 27.34C105.818 27.14 105.978 27 106.178 27H109.378C109.578 27 109.748 27.14 109.778 27.34L110.078 29.46C110.568 29.66 111.008 29.92 111.428 30.24L113.418 29.44C113.598 29.38 113.808 29.44 113.908 29.62L115.508 32.39C115.598 32.56 115.558 32.78 115.408 32.9L113.718 34.22C113.758 34.47 113.778 34.73 113.778 35ZM104.778 35C104.778 36.65 106.128 38 107.778 38C109.428 38 110.778 36.65 110.778 35C110.778 33.35 109.428 32 107.778 32C106.128 32 104.778 33.35 104.778 35Z" fill="white"/>
<line x1="44.1316" y1="16.5176" x2="99.1316" y2="31.5176" stroke="white" stroke-opacity="0.5" stroke-dasharray="2 2"/>
<path d="M44 34.5L99 34.5" stroke="white" stroke-opacity="0.5" stroke-dasharray="2 2"/>
<line x1="116" y1="34.5" x2="156" y2="34.5" stroke="white" stroke-opacity="0.5" stroke-dasharray="2 2"/>
<line x1="42.8706" y1="52.517" x2="98.8706" y2="37.517" stroke="white" stroke-opacity="0.5" stroke-dasharray="2 2"/>
<path d="M155.509 61.1504H159.508C161.33 61.1504 162.651 61.4111 163.472 61.9326C164.298 62.4482 164.711 63.2715 164.711 64.4023C164.711 65.1699 164.529 65.7998 164.166 66.292C163.809 66.7842 163.331 67.0801 162.733 67.1797V67.2676C163.548 67.4492 164.134 67.7891 164.491 68.2871C164.854 68.7852 165.036 69.4473 165.036 70.2734C165.036 71.4453 164.611 72.3594 163.762 73.0156C162.918 73.6719 161.77 74 160.316 74H155.509V61.1504ZM158.233 66.2393H159.815C160.554 66.2393 161.087 66.125 161.415 65.8965C161.749 65.668 161.916 65.29 161.916 64.7627C161.916 64.2705 161.734 63.9189 161.371 63.708C161.014 63.4912 160.445 63.3828 159.666 63.3828H158.233V66.2393ZM158.233 68.4014V71.75H160.009C160.759 71.75 161.312 71.6064 161.67 71.3193C162.027 71.0322 162.206 70.5928 162.206 70.001C162.206 68.9346 161.444 68.4014 159.921 68.4014H158.233ZM175.003 74H167.603V61.1504H175.003V63.3828H170.327V66.2041H174.678V68.4365H170.327V71.75H175.003V74ZM185.277 70.4316C185.277 71.5918 184.858 72.5059 184.021 73.1738C183.188 73.8418 182.028 74.1758 180.54 74.1758C179.169 74.1758 177.956 73.918 176.901 73.4023V70.8711C177.769 71.2578 178.501 71.5303 179.099 71.6885C179.702 71.8467 180.253 71.9258 180.751 71.9258C181.349 71.9258 181.806 71.8115 182.122 71.583C182.444 71.3545 182.605 71.0146 182.605 70.5635C182.605 70.3115 182.535 70.0889 182.395 69.8955C182.254 69.6963 182.046 69.5059 181.771 69.3242C181.501 69.1426 180.947 68.8525 180.109 68.4541C179.324 68.085 178.735 67.7305 178.343 67.3906C177.95 67.0508 177.637 66.6553 177.402 66.2041C177.168 65.7529 177.051 65.2256 177.051 64.6221C177.051 63.4854 177.435 62.5918 178.202 61.9414C178.976 61.291 180.042 60.9658 181.401 60.9658C182.069 60.9658 182.705 61.0449 183.309 61.2031C183.918 61.3613 184.554 61.584 185.216 61.8711L184.337 63.9893C183.651 63.708 183.083 63.5117 182.632 63.4004C182.187 63.2891 181.747 63.2334 181.313 63.2334C180.798 63.2334 180.402 63.3535 180.127 63.5938C179.852 63.834 179.714 64.1475 179.714 64.5342C179.714 64.7744 179.77 64.9854 179.881 65.167C179.992 65.3428 180.168 65.5156 180.408 65.6855C180.654 65.8496 181.231 66.1484 182.14 66.582C183.341 67.1562 184.164 67.7334 184.609 68.3135C185.055 68.8877 185.277 69.5938 185.277 70.4316ZM192.563 74H189.839V63.418H186.35V61.1504H196.053V63.418H192.563V74ZM213.367 67.4521C213.367 69.5674 212.764 71.1875 211.557 72.3125C210.355 73.4375 208.618 74 206.345 74H202.706V61.1504H206.74C208.838 61.1504 210.467 61.7041 211.627 62.8115C212.787 63.9189 213.367 65.4658 213.367 67.4521ZM210.537 67.5225C210.537 64.7627 209.318 63.3828 206.881 63.3828H205.431V71.75H206.6C209.225 71.75 210.537 70.3408 210.537 67.5225ZM223.431 74H216.03V61.1504H223.431V63.3828H218.755V66.2041H223.105V68.4365H218.755V71.75H223.431V74ZM233.986 74L233.055 70.9414H228.37L227.438 74H224.503L229.038 61.0977H232.369L236.922 74H233.986ZM232.404 68.6562C231.543 65.8848 231.057 64.3174 230.945 63.9541C230.84 63.5908 230.764 63.3037 230.717 63.0928C230.523 63.8428 229.97 65.6973 229.056 68.6562H232.404ZM238.548 74V61.1504H241.272V71.75H246.484V74H238.548Z" fill="white"/>
<path d="M10.6426 17.6211C10.6426 18.3945 10.3633 19.0039 9.80469 19.4492C9.25 19.8945 8.47656 20.1172 7.48438 20.1172C6.57031 20.1172 5.76172 19.9453 5.05859 19.6016V17.9141C5.63672 18.1719 6.125 18.3535 6.52344 18.459C6.92578 18.5645 7.29297 18.6172 7.625 18.6172C8.02344 18.6172 8.32812 18.541 8.53906 18.3887C8.75391 18.2363 8.86133 18.0098 8.86133 17.709C8.86133 17.541 8.81445 17.3926 8.7207 17.2637C8.62695 17.1309 8.48828 17.0039 8.30469 16.8828C8.125 16.7617 7.75586 16.5684 7.19727 16.3027C6.67383 16.0566 6.28125 15.8203 6.01953 15.5938C5.75781 15.3672 5.54883 15.1035 5.39258 14.8027C5.23633 14.502 5.1582 14.1504 5.1582 13.748C5.1582 12.9902 5.41406 12.3945 5.92578 11.9609C6.44141 11.5273 7.15234 11.3105 8.05859 11.3105C8.50391 11.3105 8.92773 11.3633 9.33008 11.4688C9.73633 11.5742 10.1602 11.7227 10.6016 11.9141L10.0156 13.3262C9.55859 13.1387 9.17969 13.0078 8.87891 12.9336C8.58203 12.8594 8.28906 12.8223 8 12.8223C7.65625 12.8223 7.39258 12.9023 7.20898 13.0625C7.02539 13.2227 6.93359 13.4316 6.93359 13.6895C6.93359 13.8496 6.9707 13.9902 7.04492 14.1113C7.11914 14.2285 7.23633 14.3438 7.39648 14.457C7.56055 14.5664 7.94531 14.7656 8.55078 15.0547C9.35156 15.4375 9.90039 15.8223 10.1973 16.209C10.4941 16.5918 10.6426 17.0625 10.6426 17.6211ZM11.9785 11.7559C11.9785 11.1738 12.3027 10.8828 12.9512 10.8828C13.5996 10.8828 13.9238 11.1738 13.9238 11.7559C13.9238 12.0332 13.8418 12.25 13.6777 12.4062C13.5176 12.5586 13.2754 12.6348 12.9512 12.6348C12.3027 12.6348 11.9785 12.3418 11.9785 11.7559ZM13.8418 20H12.0547V13.4492H13.8418V20ZM18.4824 18.6934C18.7949 18.6934 19.1699 18.625 19.6074 18.4883V19.8184C19.1621 20.0176 18.6152 20.1172 17.9668 20.1172C17.252 20.1172 16.7305 19.9375 16.4023 19.5781C16.0781 19.2148 15.916 18.6719 15.916 17.9492V14.791H15.0605V14.0352L16.0449 13.4375L16.5605 12.0547H17.7031V13.4492H19.5371V14.791H17.7031V17.9492C17.7031 18.2031 17.7734 18.3906 17.9141 18.5117C18.0586 18.6328 18.248 18.6934 18.4824 18.6934ZM23.6504 14.5977C23.2715 14.5977 22.9746 14.7188 22.7598 14.9609C22.5449 15.1992 22.4219 15.5391 22.3906 15.9805H24.8984C24.8906 15.5391 24.7754 15.1992 24.5527 14.9609C24.3301 14.7188 24.0293 14.5977 23.6504 14.5977ZM23.9023 20.1172C22.8477 20.1172 22.0234 19.8262 21.4297 19.2441C20.8359 18.6621 20.5391 17.8379 20.5391 16.7715C20.5391 15.6738 20.8125 14.8262 21.3594 14.2285C21.9102 13.627 22.6699 13.3262 23.6387 13.3262C24.5645 13.3262 25.2852 13.5898 25.8008 14.1172C26.3164 14.6445 26.5742 15.373 26.5742 16.3027V17.1699H22.3496C22.3691 17.6777 22.5195 18.0742 22.8008 18.3594C23.082 18.6445 23.4766 18.7871 23.9844 18.7871C24.3789 18.7871 24.752 18.7461 25.1035 18.6641C25.4551 18.582 25.8223 18.4512 26.2051 18.2715V19.6543C25.8926 19.8105 25.5586 19.9258 25.2031 20C24.8477 20.0781 24.4141 20.1172 23.9023 20.1172ZM36.5293 20L35.9082 17.9609H32.7852L32.1641 20H30.207L33.2305 11.3984H35.4512L38.4863 20H36.5293ZM35.4746 16.4375C34.9004 14.5898 34.5762 13.5449 34.502 13.3027C34.4316 13.0605 34.3809 12.8691 34.3496 12.7285C34.2207 13.2285 33.8516 14.4648 33.2422 16.4375H35.4746Z" fill="white"/>
<path d="M180.946 3.628C181.114 3.628 181.25 3.684 181.354 3.796C181.466 3.9 181.522 4.036 181.522 4.204C181.522 4.372 181.466 4.512 181.354 4.624C181.25 4.728 181.114 4.78 180.946 4.78H178.366V12.376C178.366 12.552 178.306 12.7 178.186 12.82C178.066 12.94 177.918 13 177.742 13C177.566 13 177.418 12.94 177.298 12.82C177.178 12.7 177.118 12.552 177.118 12.376V4.78H174.526C174.358 4.78 174.218 4.728 174.106 4.624C174.002 4.512 173.95 4.372 173.95 4.204C173.95 4.036 174.002 3.9 174.106 3.796C174.218 3.684 174.358 3.628 174.526 3.628H180.946ZM184.323 6.364C184.747 6.364 185.079 6.428 185.319 6.556C185.559 6.684 185.679 6.844 185.679 7.036C185.679 7.092 185.675 7.132 185.667 7.156C185.595 7.412 185.435 7.54 185.187 7.54C185.147 7.54 185.087 7.532 185.007 7.516C184.687 7.46 184.427 7.432 184.227 7.432C183.651 7.432 183.187 7.564 182.835 7.828C182.483 8.092 182.307 8.448 182.307 8.896V12.4C182.307 12.592 182.255 12.74 182.151 12.844C182.055 12.948 181.907 13 181.707 13C181.515 13 181.367 12.952 181.263 12.856C181.159 12.752 181.107 12.6 181.107 12.4V7.036C181.107 6.844 181.159 6.696 181.263 6.592C181.367 6.488 181.515 6.436 181.707 6.436C182.107 6.436 182.307 6.636 182.307 7.036V7.264C182.547 6.984 182.843 6.764 183.195 6.604C183.547 6.444 183.923 6.364 184.323 6.364ZM187.063 7.048C187.063 6.864 187.119 6.716 187.231 6.604C187.351 6.492 187.499 6.436 187.675 6.436C187.859 6.436 188.007 6.492 188.119 6.604C188.231 6.716 188.287 6.864 188.287 7.048V12.388C188.287 12.564 188.231 12.712 188.119 12.832C188.007 12.944 187.859 13 187.675 13C187.499 13 187.351 12.944 187.231 12.832C187.119 12.712 187.063 12.564 187.063 12.388V7.048ZM187.675 3.784C187.891 3.784 188.075 3.864 188.227 4.024C188.387 4.176 188.467 4.36 188.467 4.576C188.467 4.792 188.387 4.98 188.227 5.14C188.075 5.292 187.891 5.368 187.675 5.368C187.459 5.368 187.271 5.292 187.111 5.14C186.959 4.98 186.883 4.792 186.883 4.576C186.883 4.36 186.959 4.176 187.111 4.024C187.271 3.864 187.459 3.784 187.675 3.784ZM193.864 6.388C194.48 6.388 195.04 6.536 195.544 6.832C196.056 7.12 196.456 7.52 196.744 8.032C197.032 8.536 197.176 9.1 197.176 9.724C197.176 10.348 197.04 10.916 196.768 11.428C196.504 11.932 196.136 12.328 195.664 12.616C195.2 12.904 194.68 13.048 194.104 13.048C193.64 13.048 193.208 12.952 192.808 12.76C192.408 12.568 192.068 12.3 191.788 11.956V15.196C191.788 15.38 191.732 15.528 191.62 15.64C191.508 15.752 191.36 15.808 191.176 15.808C191 15.808 190.852 15.752 190.732 15.64C190.62 15.528 190.564 15.38 190.564 15.196V9.724C190.564 9.1 190.708 8.536 190.996 8.032C191.292 7.52 191.688 7.12 192.184 6.832C192.688 6.536 193.248 6.388 193.864 6.388ZM193.864 11.968C194.264 11.968 194.624 11.872 194.944 11.68C195.272 11.48 195.528 11.212 195.712 10.876C195.904 10.532 196 10.148 196 9.724C196 9.3 195.904 8.916 195.712 8.572C195.528 8.228 195.272 7.96 194.944 7.768C194.624 7.568 194.264 7.468 193.864 7.468C193.464 7.468 193.1 7.568 192.772 7.768C192.452 7.96 192.2 8.228 192.016 8.572C191.832 8.916 191.74 9.3 191.74 9.724C191.74 10.148 191.832 10.532 192.016 10.876C192.2 11.212 192.452 11.48 192.772 11.68C193.1 11.872 193.464 11.968 193.864 11.968ZM201.582 6.676C201.75 6.676 201.886 6.724 201.99 6.82C202.094 6.916 202.146 7.044 202.146 7.204C202.146 7.348 202.094 7.468 201.99 7.564C201.886 7.66 201.75 7.708 201.582 7.708H200.346V12.388C200.346 12.556 200.286 12.7 200.166 12.82C200.054 12.94 199.91 13 199.734 13C199.558 13 199.41 12.94 199.29 12.82C199.178 12.7 199.122 12.556 199.122 12.388V7.708H198.606C198.438 7.708 198.302 7.66 198.198 7.564C198.094 7.468 198.042 7.348 198.042 7.204C198.042 7.044 198.094 6.916 198.198 6.82C198.302 6.724 198.438 6.676 198.606 6.676H199.122V6.472C199.122 5.544 199.402 4.824 199.962 4.312C200.522 3.8 201.39 3.544 202.566 3.544C203.142 3.544 203.602 3.64 203.946 3.832C204.298 4.024 204.474 4.272 204.474 4.576C204.474 4.928 204.258 5.104 203.826 5.104C203.682 5.104 203.546 5.076 203.418 5.02C203.298 4.956 203.162 4.868 203.01 4.756C202.818 4.628 202.654 4.536 202.518 4.48C202.39 4.416 202.242 4.384 202.074 4.384C200.922 4.384 200.346 5.08 200.346 6.472V6.676H201.582ZM203.73 6.436C203.914 6.436 204.062 6.492 204.174 6.604C204.286 6.716 204.342 6.864 204.342 7.048V12.388C204.342 12.564 204.286 12.712 204.174 12.832C204.062 12.944 203.914 13 203.73 13C203.554 13 203.406 12.944 203.286 12.832C203.174 12.712 203.118 12.564 203.118 12.388V7.048C203.118 6.864 203.174 6.716 203.286 6.604C203.406 6.492 203.554 6.436 203.73 6.436ZM211.552 12.076C211.664 12.196 211.72 12.336 211.72 12.496C211.72 12.64 211.668 12.76 211.564 12.856C211.468 12.952 211.34 13 211.18 13C210.988 13 210.844 12.936 210.748 12.808L208.84 10.528L207.028 12.808C206.908 12.936 206.764 13 206.596 13C206.436 13 206.308 12.952 206.212 12.856C206.124 12.76 206.08 12.64 206.08 12.496C206.08 12.336 206.136 12.188 206.248 12.052L208.108 9.724L206.128 7.384C206.008 7.24 205.948 7.088 205.948 6.928C205.948 6.792 205.992 6.676 206.08 6.58C206.176 6.484 206.308 6.436 206.476 6.436C206.668 6.436 206.82 6.504 206.932 6.64L208.9 8.992L210.664 6.64C210.768 6.504 210.916 6.436 211.108 6.436C211.268 6.436 211.392 6.488 211.48 6.592C211.576 6.688 211.624 6.808 211.624 6.952C211.624 7.128 211.568 7.288 211.456 7.432L209.644 9.796L211.552 12.076ZM218.546 9.616C218.546 9.768 218.494 9.896 218.39 10C218.286 10.096 218.154 10.144 217.994 10.144H213.434C213.522 10.704 213.774 11.156 214.19 11.5C214.614 11.844 215.13 12.016 215.738 12.016C215.978 12.016 216.226 11.972 216.482 11.884C216.746 11.796 216.962 11.688 217.13 11.56C217.242 11.472 217.374 11.428 217.526 11.428C217.678 11.428 217.798 11.468 217.886 11.548C218.03 11.668 218.102 11.804 218.102 11.956C218.102 12.1 218.038 12.22 217.91 12.316C217.638 12.532 217.298 12.708 216.89 12.844C216.49 12.98 216.106 13.048 215.738 13.048C215.082 13.048 214.494 12.908 213.974 12.628C213.454 12.34 213.046 11.944 212.75 11.44C212.462 10.936 212.318 10.364 212.318 9.724C212.318 9.084 212.454 8.512 212.726 8.008C213.006 7.496 213.39 7.1 213.878 6.82C214.374 6.532 214.934 6.388 215.558 6.388C216.174 6.388 216.706 6.524 217.154 6.796C217.602 7.068 217.946 7.448 218.186 7.936C218.426 8.424 218.546 8.984 218.546 9.616ZM215.558 7.42C214.974 7.42 214.498 7.58 214.13 7.9C213.77 8.22 213.542 8.648 213.446 9.184H217.442C217.37 8.648 217.17 8.22 216.842 7.9C216.514 7.58 216.086 7.42 215.558 7.42ZM225.537 3.628C225.721 3.628 225.869 3.684 225.981 3.796C226.093 3.908 226.149 4.056 226.149 4.24V9.712C226.149 10.336 226.001 10.904 225.705 11.416C225.417 11.92 225.021 12.32 224.517 12.616C224.021 12.904 223.465 13.048 222.849 13.048C222.233 13.048 221.669 12.904 221.157 12.616C220.653 12.32 220.257 11.92 219.969 11.416C219.681 10.904 219.537 10.336 219.537 9.712C219.537 9.088 219.669 8.524 219.933 8.02C220.205 7.508 220.573 7.108 221.037 6.82C221.509 6.532 222.033 6.388 222.609 6.388C223.073 6.388 223.505 6.484 223.905 6.676C224.305 6.868 224.645 7.136 224.925 7.48V4.24C224.925 4.056 224.981 3.908 225.093 3.796C225.213 3.684 225.361 3.628 225.537 3.628ZM222.849 11.968C223.249 11.968 223.609 11.872 223.929 11.68C224.257 11.48 224.513 11.208 224.697 10.864C224.881 10.52 224.973 10.136 224.973 9.712C224.973 9.288 224.881 8.908 224.697 8.572C224.513 8.228 224.257 7.96 223.929 7.768C223.609 7.568 223.249 7.468 222.849 7.468C222.449 7.468 222.085 7.568 221.757 7.768C221.437 7.96 221.181 8.228 220.989 8.572C220.805 8.908 220.713 9.288 220.713 9.712C220.713 10.136 220.805 10.52 220.989 10.864C221.181 11.208 221.437 11.48 221.757 11.68C222.085 11.872 222.449 11.968 222.849 11.968Z" fill="white"/>
<path d="M11.7539 36.6211C11.7539 37.3945 11.4746 38.0039 10.916 38.4492C10.3613 38.8945 9.58789 39.1172 8.5957 39.1172C7.68164 39.1172 6.87305 38.9453 6.16992 38.6016V36.9141C6.74805 37.1719 7.23633 37.3535 7.63477 37.459C8.03711 37.5645 8.4043 37.6172 8.73633 37.6172C9.13477 37.6172 9.43945 37.541 9.65039 37.3887C9.86523 37.2363 9.97266 37.0098 9.97266 36.709C9.97266 36.541 9.92578 36.3926 9.83203 36.2637C9.73828 36.1309 9.59961 36.0039 9.41602 35.8828C9.23633 35.7617 8.86719 35.5684 8.30859 35.3027C7.78516 35.0566 7.39258 34.8203 7.13086 34.5938C6.86914 34.3672 6.66016 34.1035 6.50391 33.8027C6.34766 33.502 6.26953 33.1504 6.26953 32.748C6.26953 31.9902 6.52539 31.3945 7.03711 30.9609C7.55273 30.5273 8.26367 30.3105 9.16992 30.3105C9.61523 30.3105 10.0391 30.3633 10.4414 30.4688C10.8477 30.5742 11.2715 30.7227 11.7129 30.9141L11.127 32.3262C10.6699 32.1387 10.291 32.0078 9.99023 31.9336C9.69336 31.8594 9.40039 31.8223 9.11133 31.8223C8.76758 31.8223 8.50391 31.9023 8.32031 32.0625C8.13672 32.2227 8.04492 32.4316 8.04492 32.6895C8.04492 32.8496 8.08203 32.9902 8.15625 33.1113C8.23047 33.2285 8.34766 33.3438 8.50781 33.457C8.67188 33.5664 9.05664 33.7656 9.66211 34.0547C10.4629 34.4375 11.0117 34.8223 11.3086 35.209C11.6055 35.5918 11.7539 36.0625 11.7539 36.6211ZM13.0898 30.7559C13.0898 30.1738 13.4141 29.8828 14.0625 29.8828C14.7109 29.8828 15.0352 30.1738 15.0352 30.7559C15.0352 31.0332 14.9531 31.25 14.7891 31.4062C14.6289 31.5586 14.3867 31.6348 14.0625 31.6348C13.4141 31.6348 13.0898 31.3418 13.0898 30.7559ZM14.9531 39H13.166V32.4492H14.9531V39ZM19.5938 37.6934C19.9062 37.6934 20.2812 37.625 20.7188 37.4883V38.8184C20.2734 39.0176 19.7266 39.1172 19.0781 39.1172C18.3633 39.1172 17.8418 38.9375 17.5137 38.5781C17.1895 38.2148 17.0273 37.6719 17.0273 36.9492V33.791H16.1719V33.0352L17.1562 32.4375L17.6719 31.0547H18.8145V32.4492H20.6484V33.791H18.8145V36.9492C18.8145 37.2031 18.8848 37.3906 19.0254 37.5117C19.1699 37.6328 19.3594 37.6934 19.5938 37.6934ZM24.7617 33.5977C24.3828 33.5977 24.0859 33.7188 23.8711 33.9609C23.6562 34.1992 23.5332 34.5391 23.502 34.9805H26.0098C26.002 34.5391 25.8867 34.1992 25.6641 33.9609C25.4414 33.7188 25.1406 33.5977 24.7617 33.5977ZM25.0137 39.1172C23.959 39.1172 23.1348 38.8262 22.541 38.2441C21.9473 37.6621 21.6504 36.8379 21.6504 35.7715C21.6504 34.6738 21.9238 33.8262 22.4707 33.2285C23.0215 32.627 23.7812 32.3262 24.75 32.3262C25.6758 32.3262 26.3965 32.5898 26.9121 33.1172C27.4277 33.6445 27.6855 34.373 27.6855 35.3027V36.1699H23.4609C23.4805 36.6777 23.6309 37.0742 23.9121 37.3594C24.1934 37.6445 24.5879 37.7871 25.0957 37.7871C25.4902 37.7871 25.8633 37.7461 26.2148 37.6641C26.5664 37.582 26.9336 37.4512 27.3164 37.2715V38.6543C27.0039 38.8105 26.6699 38.9258 26.3145 39C25.959 39.0781 25.5254 39.1172 25.0137 39.1172ZM32.3965 30.4336H35.0625C36.2773 30.4336 37.1582 30.6074 37.7051 30.9551C38.2559 31.2988 38.5312 31.8477 38.5312 32.6016C38.5312 33.1133 38.4102 33.5332 38.168 33.8613C37.9297 34.1895 37.6113 34.3867 37.2129 34.4531V34.5117C37.7559 34.6328 38.1465 34.8594 38.3848 35.1914C38.627 35.5234 38.748 35.9648 38.748 36.5156C38.748 37.2969 38.4648 37.9062 37.8984 38.3438C37.3359 38.7812 36.5703 39 35.6016 39H32.3965V30.4336ZM34.2129 33.8262H35.2676C35.7598 33.8262 36.1152 33.75 36.334 33.5977C36.5566 33.4453 36.668 33.1934 36.668 32.8418C36.668 32.5137 36.5469 32.2793 36.3047 32.1387C36.0664 31.9941 35.6875 31.9219 35.168 31.9219H34.2129V33.8262ZM34.2129 35.2676V37.5H35.3965C35.8965 37.5 36.2656 37.4043 36.5039 37.2129C36.7422 37.0215 36.8613 36.7285 36.8613 36.334C36.8613 35.623 36.3535 35.2676 35.3379 35.2676H34.2129Z" fill="white"/>
<path d="M11.959 55.6211C11.959 56.3945 11.6797 57.0039 11.1211 57.4492C10.5664 57.8945 9.79297 58.1172 8.80078 58.1172C7.88672 58.1172 7.07812 57.9453 6.375 57.6016V55.9141C6.95312 56.1719 7.44141 56.3535 7.83984 56.459C8.24219 56.5645 8.60938 56.6172 8.94141 56.6172C9.33984 56.6172 9.64453 56.541 9.85547 56.3887C10.0703 56.2363 10.1777 56.0098 10.1777 55.709C10.1777 55.541 10.1309 55.3926 10.0371 55.2637C9.94336 55.1309 9.80469 55.0039 9.62109 54.8828C9.44141 54.7617 9.07227 54.5684 8.51367 54.3027C7.99023 54.0566 7.59766 53.8203 7.33594 53.5938C7.07422 53.3672 6.86523 53.1035 6.70898 52.8027C6.55273 52.502 6.47461 52.1504 6.47461 51.748C6.47461 50.9902 6.73047 50.3945 7.24219 49.9609C7.75781 49.5273 8.46875 49.3105 9.375 49.3105C9.82031 49.3105 10.2441 49.3633 10.6465 49.4688C11.0527 49.5742 11.4766 49.7227 11.918 49.9141L11.332 51.3262C10.875 51.1387 10.4961 51.0078 10.1953 50.9336C9.89844 50.8594 9.60547 50.8223 9.31641 50.8223C8.97266 50.8223 8.70898 50.9023 8.52539 51.0625C8.3418 51.2227 8.25 51.4316 8.25 51.6895C8.25 51.8496 8.28711 51.9902 8.36133 52.1113C8.43555 52.2285 8.55273 52.3438 8.71289 52.457C8.87695 52.5664 9.26172 52.7656 9.86719 53.0547C10.668 53.4375 11.2168 53.8223 11.5137 54.209C11.8105 54.5918 11.959 55.0625 11.959 55.6211ZM13.2949 49.7559C13.2949 49.1738 13.6191 48.8828 14.2676 48.8828C14.916 48.8828 15.2402 49.1738 15.2402 49.7559C15.2402 50.0332 15.1582 50.25 14.9941 50.4062C14.834 50.5586 14.5918 50.6348 14.2676 50.6348C13.6191 50.6348 13.2949 50.3418 13.2949 49.7559ZM15.1582 58H13.3711V51.4492H15.1582V58ZM19.7988 56.6934C20.1113 56.6934 20.4863 56.625 20.9238 56.4883V57.8184C20.4785 58.0176 19.9316 58.1172 19.2832 58.1172C18.5684 58.1172 18.0469 57.9375 17.7188 57.5781C17.3945 57.2148 17.2324 56.6719 17.2324 55.9492V52.791H16.377V52.0352L17.3613 51.4375L17.877 50.0547H19.0195V51.4492H20.8535V52.791H19.0195V55.9492C19.0195 56.2031 19.0898 56.3906 19.2305 56.5117C19.375 56.6328 19.5645 56.6934 19.7988 56.6934ZM24.9668 52.5977C24.5879 52.5977 24.291 52.7188 24.0762 52.9609C23.8613 53.1992 23.7383 53.5391 23.707 53.9805H26.2148C26.207 53.5391 26.0918 53.1992 25.8691 52.9609C25.6465 52.7188 25.3457 52.5977 24.9668 52.5977ZM25.2188 58.1172C24.1641 58.1172 23.3398 57.8262 22.7461 57.2441C22.1523 56.6621 21.8555 55.8379 21.8555 54.7715C21.8555 53.6738 22.1289 52.8262 22.6758 52.2285C23.2266 51.627 23.9863 51.3262 24.9551 51.3262C25.8809 51.3262 26.6016 51.5898 27.1172 52.1172C27.6328 52.6445 27.8906 53.373 27.8906 54.3027V55.1699H23.666C23.6855 55.6777 23.8359 56.0742 24.1172 56.3594C24.3984 56.6445 24.793 56.7871 25.3008 56.7871C25.6953 56.7871 26.0684 56.7461 26.4199 56.6641C26.7715 56.582 27.1387 56.4512 27.5215 56.2715V57.6543C27.209 57.8105 26.875 57.9258 26.5195 58C26.1641 58.0781 25.7305 58.1172 25.2188 58.1172ZM36.2402 50.8223C35.5566 50.8223 35.0273 51.0801 34.6523 51.5957C34.2773 52.1074 34.0898 52.8223 34.0898 53.7402C34.0898 55.6504 34.8066 56.6055 36.2402 56.6055C36.8418 56.6055 37.5703 56.4551 38.4258 56.1543V57.6777C37.7227 57.9707 36.9375 58.1172 36.0703 58.1172C34.8242 58.1172 33.8711 57.7402 33.2109 56.9863C32.5508 56.2285 32.2207 55.1426 32.2207 53.7285C32.2207 52.8379 32.3828 52.0586 32.707 51.3906C33.0312 50.7188 33.4961 50.2051 34.1016 49.8496C34.7109 49.4902 35.4238 49.3105 36.2402 49.3105C37.0723 49.3105 37.9082 49.5117 38.748 49.9141L38.1621 51.3906C37.8418 51.2383 37.5195 51.1055 37.1953 50.9922C36.8711 50.8789 36.5527 50.8223 36.2402 50.8223Z" fill="white"/>
<rect x="158.5" y="16.5" width="84" height="37" rx="1.5" stroke="white"/>
<rect x="185" y="27" width="30" height="5" rx="2" fill="white"/>
<rect x="188" y="34" width="25" height="3" rx="1.5" fill="white"/>
<rect x="230" y="19" width="10" height="3" rx="1.5" fill="white"/>
<rect x="172" y="48" width="10" height="3" rx="1.5" fill="white"/>
<rect x="217" y="48" width="10" height="3" rx="1.5" fill="white"/>
<rect x="215" y="45" width="15" height="2" rx="1" fill="white"/>
<rect x="170" y="45" width="15" height="2" rx="1" fill="white"/>
</svg>
