<svg width="255" height="75" viewBox="0 0 255 75" fill="none" xmlns="http://www.w3.org/2000/svg">
<path d="M136 30C128.28 30 122 36.28 122 44C122 54.5 136 70 136 70C136 70 150 54.5 150 44C150 36.28 143.72 30 136 30ZM136 34C138.2 34 140 35.8 140 38C140 40.22 138.2 42 136 42C133.8 42 132 40.22 132 38C132 35.8 133.8 34 136 34ZM136 54C132.66 54 129.72 52.3 128 49.7C128.04 47.06 133.34 45.6 136 45.6C138.66 45.6 143.96 47.06 144 49.7C142.28 52.3 139.34 54 136 54V54Z" fill="white"/>
<path d="M7 21C3.14 21 0 24.14 0 28C0 33.25 7 41 7 41C7 41 14 33.25 14 28C14 24.14 10.86 21 7 21Z" fill="white" fill-opacity="0.5"/>
<path d="M16.1816 42.5195C15.7715 42.5195 15.4141 42.4766 15.1094 42.3906V40.8789C15.4219 40.957 15.707 40.9961 15.9648 40.9961C16.3633 40.9961 16.6484 40.8711 16.8203 40.6211C16.9922 40.375 17.0781 39.9883 17.0781 39.4609V31.4336H18.8945V39.4492C18.8945 40.4492 18.666 41.2109 18.209 41.7344C17.752 42.2578 17.0762 42.5195 16.1816 42.5195ZM22.8379 40H21.0508V31.4336H25.9609V32.9219H22.8379V35.1309H25.7441V36.6133H22.8379V40ZM34.5273 40H32.4648L30.2207 36.3906L29.4531 36.9414V40H27.6367V31.4336H29.4531V35.3535L30.168 34.3457L32.4883 31.4336H34.5039L31.5156 35.2246L34.5273 40Z" fill="white" fill-opacity="0.3"/>
<path d="M213 55C209.14 55 206 58.14 206 62C206 67.25 213 75 213 75C213 75 220 67.25 220 62C220 58.14 216.86 55 213 55Z" fill="white" fill-opacity="0.5"/>
<path d="M228.135 71.6211C228.135 72.3945 227.855 73.0039 227.297 73.4492C226.742 73.8945 225.969 74.1172 224.977 74.1172C224.062 74.1172 223.254 73.9453 222.551 73.6016V71.9141C223.129 72.1719 223.617 72.3535 224.016 72.459C224.418 72.5645 224.785 72.6172 225.117 72.6172C225.516 72.6172 225.82 72.541 226.031 72.3887C226.246 72.2363 226.354 72.0098 226.354 71.709C226.354 71.541 226.307 71.3926 226.213 71.2637C226.119 71.1309 225.98 71.0039 225.797 70.8828C225.617 70.7617 225.248 70.5684 224.689 70.3027C224.166 70.0566 223.773 69.8203 223.512 69.5938C223.25 69.3672 223.041 69.1035 222.885 68.8027C222.729 68.502 222.65 68.1504 222.65 67.748C222.65 66.9902 222.906 66.3945 223.418 65.9609C223.934 65.5273 224.645 65.3105 225.551 65.3105C225.996 65.3105 226.42 65.3633 226.822 65.4688C227.229 65.5742 227.652 65.7227 228.094 65.9141L227.508 67.3262C227.051 67.1387 226.672 67.0078 226.371 66.9336C226.074 66.8594 225.781 66.8223 225.492 66.8223C225.148 66.8223 224.885 66.9023 224.701 67.0625C224.518 67.2227 224.426 67.4316 224.426 67.6895C224.426 67.8496 224.463 67.9902 224.537 68.1113C224.611 68.2285 224.729 68.3438 224.889 68.457C225.053 68.5664 225.438 68.7656 226.043 69.0547C226.844 69.4375 227.393 69.8223 227.689 70.209C227.986 70.5918 228.135 71.0625 228.135 71.6211ZM232.354 68.9609L234.141 65.4336H236.098L233.256 70.666V74H231.451V70.7246L228.609 65.4336H230.578L232.354 68.9609ZM244.283 69.6348C244.283 71.0449 243.881 72.125 243.076 72.875C242.275 73.625 241.117 74 239.602 74H237.176V65.4336H239.865C241.264 65.4336 242.35 65.8027 243.123 66.541C243.896 67.2793 244.283 68.3105 244.283 69.6348ZM242.396 69.6816C242.396 67.8418 241.584 66.9219 239.959 66.9219H238.992V72.5H239.771C241.521 72.5 242.396 71.5605 242.396 69.6816Z" fill="white" fill-opacity="0.3"/>
<path d="M69 32C65.14 32 62 35.14 62 39C62 44.25 69 52 69 52C69 52 76 44.25 76 39C76 35.14 72.86 32 69 32Z" fill="white" fill-opacity="0.5"/>
<path d="M79.0781 42.4336H81.7441C82.959 42.4336 83.8398 42.6074 84.3867 42.9551C84.9375 43.2988 85.2129 43.8477 85.2129 44.6016C85.2129 45.1133 85.0918 45.5332 84.8496 45.8613C84.6113 46.1895 84.293 46.3867 83.8945 46.4531V46.5117C84.4375 46.6328 84.8281 46.8594 85.0664 47.1914C85.3086 47.5234 85.4297 47.9648 85.4297 48.5156C85.4297 49.2969 85.1465 49.9062 84.5801 50.3438C84.0176 50.7812 83.252 51 82.2832 51H79.0781V42.4336ZM80.8945 45.8262H81.9492C82.4414 45.8262 82.7969 45.75 83.0156 45.5977C83.2383 45.4453 83.3496 45.1934 83.3496 44.8418C83.3496 44.5137 83.2285 44.2793 82.9863 44.1387C82.748 43.9941 82.3691 43.9219 81.8496 43.9219H80.8945V45.8262ZM80.8945 47.2676V49.5H82.0781C82.5781 49.5 82.9473 49.4043 83.1855 49.2129C83.4238 49.0215 83.543 48.7285 83.543 48.334C83.543 47.623 83.0352 47.2676 82.0195 47.2676H80.8945ZM90.7793 43.8223C90.0957 43.8223 89.5664 44.0801 89.1914 44.5957C88.8164 45.1074 88.6289 45.8223 88.6289 46.7402C88.6289 48.6504 89.3457 49.6055 90.7793 49.6055C91.3809 49.6055 92.1094 49.4551 92.9648 49.1543V50.6777C92.2617 50.9707 91.4766 51.1172 90.6094 51.1172C89.3633 51.1172 88.4102 50.7402 87.75 49.9863C87.0898 49.2285 86.7598 48.1426 86.7598 46.7285C86.7598 45.8379 86.9219 45.0586 87.2461 44.3906C87.5703 43.7188 88.0352 43.2051 88.6406 42.8496C89.25 42.4902 89.9629 42.3105 90.7793 42.3105C91.6113 42.3105 92.4473 42.5117 93.2871 42.9141L92.7012 44.3906C92.3809 44.2383 92.0586 44.1055 91.7344 43.9922C91.4102 43.8789 91.0918 43.8223 90.7793 43.8223ZM102.393 51H100.084L96.3574 44.5195H96.3047C96.3789 45.6641 96.416 46.4805 96.416 46.9688V51H94.793V42.4336H97.084L100.805 48.8496H100.846C100.787 47.7363 100.758 46.9492 100.758 46.4883V42.4336H102.393V51Z" fill="white" fill-opacity="0.3"/>
<path d="M105 0C101.14 0 98 3.14 98 7C98 12.25 105 20 105 20C105 20 112 12.25 112 7C112 3.14 108.86 0 105 0Z" fill="white" fill-opacity="0.5"/>
<path d="M115.078 19V10.4336H116.895V17.5H120.369V19H115.078ZM128.883 19H127.072V15.3027H123.68V19H121.863V10.4336H123.68V13.791H127.072V10.4336H128.883V19ZM132.867 14.2363H133.453C134.027 14.2363 134.451 14.1406 134.725 13.9492C134.998 13.7578 135.135 13.457 135.135 13.0469C135.135 12.6406 134.994 12.3516 134.713 12.1797C134.436 12.0078 134.004 11.9219 133.418 11.9219H132.867V14.2363ZM132.867 15.7129V19H131.051V10.4336H133.547C134.711 10.4336 135.572 10.6465 136.131 11.0723C136.689 11.4941 136.969 12.1367 136.969 13C136.969 13.5039 136.83 13.9531 136.553 14.3477C136.275 14.7383 135.883 15.0449 135.375 15.2676C136.664 17.1934 137.504 18.4375 137.895 19H135.879L133.834 15.7129H132.867Z" fill="white" fill-opacity="0.3"/>
<path d="M28 50C24.14 50 21 53.14 21 57C21 62.25 28 70 28 70C28 70 35 62.25 35 57C35 53.14 31.86 50 28 50Z" fill="white" fill-opacity="0.5"/>
<path d="M41.7051 69L39.6426 62.2793H39.5898C39.6641 63.6465 39.7012 64.5586 39.7012 65.0156V69H38.0781V60.4336H40.5508L42.5781 66.9844H42.6133L44.7637 60.4336H47.2363V69H45.543V64.9453C45.543 64.7539 45.5449 64.5332 45.5488 64.2832C45.5566 64.0332 45.584 63.3691 45.6309 62.291H45.5781L43.3691 69H41.7051ZM49.3984 69V60.4336H51.2148V69H49.3984ZM58.6152 69L57.9941 66.9609H54.8711L54.25 69H52.293L55.3164 60.3984H57.5371L60.5723 69H58.6152ZM57.5605 65.4375C56.9863 63.5898 56.6621 62.5449 56.5879 62.3027C56.5176 62.0605 56.4668 61.8691 56.4355 61.7285C56.3066 62.2285 55.9375 63.4648 55.3281 65.4375H57.5605Z" fill="white" fill-opacity="0.3"/>
<path d="M220 7C216.14 7 213 10.14 213 14C213 19.25 220 27 220 27C220 27 227 19.25 227 14C227 10.14 223.86 7 220 7Z" fill="white" fill-opacity="0.5"/>
<path d="M237.098 26H235.287V22.3027H231.895V26H230.078V17.4336H231.895V20.791H235.287V17.4336H237.098V26ZM246.156 26H244.094L241.85 22.3906L241.082 22.9414V26H239.266V17.4336H241.082V21.3535L241.797 20.3457L244.117 17.4336H246.133L243.145 21.2246L246.156 26ZM250.486 21.1895H253.885V25.6309C253.334 25.8105 252.814 25.9355 252.326 26.0059C251.842 26.0801 251.346 26.1172 250.838 26.1172C249.545 26.1172 248.557 25.7383 247.873 24.9805C247.193 24.2188 246.854 23.127 246.854 21.7051C246.854 20.3223 247.248 19.2441 248.037 18.4707C248.83 17.6973 249.928 17.3105 251.33 17.3105C252.209 17.3105 253.057 17.4863 253.873 17.8379L253.27 19.291C252.645 18.9785 251.994 18.8223 251.318 18.8223C250.533 18.8223 249.904 19.0859 249.432 19.6133C248.959 20.1406 248.723 20.8496 248.723 21.7402C248.723 22.6699 248.912 23.3809 249.291 23.873C249.674 24.3613 250.229 24.6055 250.955 24.6055C251.334 24.6055 251.719 24.5664 252.109 24.4883V22.7012H250.486V21.1895Z" fill="white" fill-opacity="0.3"/>
<path d="M175 31C171.14 31 168 34.14 168 38C168 43.25 175 51 175 51C175 51 182 43.25 182 38C182 34.14 178.86 31 175 31Z" fill="white" fill-opacity="0.5"/>
<path d="M190.135 47.6211C190.135 48.3945 189.855 49.0039 189.297 49.4492C188.742 49.8945 187.969 50.1172 186.977 50.1172C186.062 50.1172 185.254 49.9453 184.551 49.6016V47.9141C185.129 48.1719 185.617 48.3535 186.016 48.459C186.418 48.5645 186.785 48.6172 187.117 48.6172C187.516 48.6172 187.82 48.541 188.031 48.3887C188.246 48.2363 188.354 48.0098 188.354 47.709C188.354 47.541 188.307 47.3926 188.213 47.2637C188.119 47.1309 187.98 47.0039 187.797 46.8828C187.617 46.7617 187.248 46.5684 186.689 46.3027C186.166 46.0566 185.773 45.8203 185.512 45.5938C185.25 45.3672 185.041 45.1035 184.885 44.8027C184.729 44.502 184.65 44.1504 184.65 43.748C184.65 42.9902 184.906 42.3945 185.418 41.9609C185.934 41.5273 186.645 41.3105 187.551 41.3105C187.996 41.3105 188.42 41.3633 188.822 41.4688C189.229 41.5742 189.652 41.7227 190.094 41.9141L189.508 43.3262C189.051 43.1387 188.672 43.0078 188.371 42.9336C188.074 42.8594 187.781 42.8223 187.492 42.8223C187.148 42.8223 186.885 42.9023 186.701 43.0625C186.518 43.2227 186.426 43.4316 186.426 43.6895C186.426 43.8496 186.463 43.9902 186.537 44.1113C186.611 44.2285 186.729 44.3438 186.889 44.457C187.053 44.5664 187.438 44.7656 188.043 45.0547C188.844 45.4375 189.393 45.8223 189.689 46.209C189.986 46.5918 190.135 47.0625 190.135 47.6211ZM191.688 50V41.4336H193.504V50H191.688ZM203.26 50H200.951L197.225 43.5195H197.172C197.246 44.6641 197.283 45.4805 197.283 45.9688V50H195.66V41.4336H197.951L201.672 47.8496H201.713C201.654 46.7363 201.625 45.9492 201.625 45.4883V41.4336H203.26V50Z" fill="white" fill-opacity="0.3"/>
<path d="M104.149 19.5228L108.568 19.629C118.588 19.8699 128.261 23.34 136.149 29.5228V29.5228" stroke="white" stroke-opacity="0.5" stroke-dasharray="2 2"/>
<path d="M68.9851 31.5002V31.5002C86.5248 27.2003 104.684 26.0209 122.633 28.016L135.985 29.5002" stroke="white" stroke-opacity="0.5" stroke-dasharray="2 2"/>
<path d="M7.0345 20.5012L33.5746 17.5996C55.3764 15.2161 77.4218 16.4348 98.828 21.2068L136.035 29.5012" stroke="white" stroke-opacity="0.5" stroke-dasharray="2 2"/>
<path d="M27.909 49.5084V49.5084C53.8754 28.0177 88.2161 19.5232 121.207 26.4303L135.909 29.5084" stroke="white" stroke-opacity="0.5" stroke-dasharray="2 2"/>
<path d="M175 30.5V30.5C162.464 27.8608 149.523 27.7955 136.961 30.3079L136 30.5" stroke="white" stroke-opacity="0.5" stroke-dasharray="2 2"/>
<path d="M220.018 27.4997L207.205 24.1051C188.473 19.1421 168.702 19.729 150.296 25.7943L136.018 30.4997" stroke="white" stroke-opacity="0.5" stroke-dasharray="2 2"/>
<path d="M212.846 55.4756V55.4756C205.995 35.247 185.61 22.8564 164.498 26.0886L135.846 30.4756" stroke="white" stroke-opacity="0.5" stroke-dasharray="2 2"/>
</svg>
