<svg width="4384" height="953" viewBox="0 0 4384 953" fill="none" xmlns="http://www.w3.org/2000/svg">
<path d="M1279.8 703.4C1288.33 703.4 1295.27 706.333 1300.6 712.2C1305.93 718.067 1308.6 725.533 1308.6 734.6C1308.6 743.133 1305.4 750.333 1299 756.2C1292.6 762.067 1284.6 765 1275 765H1258.2C1229.93 765 1204.6 758.333 1182.2 745C1159.8 731.133 1142.2 712.733 1129.4 689.8C1117.13 666.333 1111 639.933 1111 610.6V397H1059C1050.47 397 1043.53 394.6 1038.2 389.8C1033.4 384.467 1031 378.067 1031 370.6C1031 362.6 1033.4 356.2 1038.2 351.4C1043.53 346.067 1050.47 343.4 1059 343.4H1111V219.4C1111 210.333 1113.67 202.867 1119 197C1124.87 191.133 1132.33 188.2 1141.4 188.2C1150.47 188.2 1157.93 191.133 1163.8 197C1169.67 202.867 1172.6 210.333 1172.6 219.4V343.4H1263C1271.53 343.4 1278.2 346.067 1283 351.4C1288.33 356.2 1291 362.6 1291 370.6C1291 378.067 1288.33 384.467 1283 389.8C1278.2 394.6 1271.53 397 1263 397H1172.6V610.6C1172.6 637.8 1180.6 660.2 1196.6 677.8C1212.6 694.867 1233.13 703.4 1258.2 703.4H1279.8ZM1590.48 322.6C1612.88 322.6 1630.48 325.533 1643.28 331.4C1656.61 337.267 1663.28 345.533 1663.28 356.2C1663.28 359.4 1663.01 361.8 1662.48 363.4C1660.34 370.867 1656.88 375.933 1652.08 378.6C1647.81 381.267 1641.68 382.6 1633.68 382.6C1628.88 382.6 1620.61 382.067 1608.88 381C1604.61 380.467 1598.21 380.2 1589.68 380.2C1549.68 380.2 1516.88 390.867 1491.28 412.2C1466.21 433.533 1453.68 461.267 1453.68 495.4V734.6C1453.68 744.2 1451.01 751.667 1445.68 757C1440.34 762.333 1432.88 765 1423.28 765C1413.68 765 1406.21 762.333 1400.88 757C1395.54 751.667 1392.88 744.2 1392.88 734.6V357.8C1392.88 348.2 1395.54 340.733 1400.88 335.4C1406.21 330.067 1413.68 327.4 1423.28 327.4C1432.88 327.4 1440.34 330.067 1445.68 335.4C1451.01 340.733 1453.68 348.2 1453.68 357.8V393C1469.14 370.6 1488.88 353.267 1512.88 341C1536.88 328.733 1562.74 322.6 1590.48 322.6ZM1756.08 358.6C1756.08 349.533 1759.01 342.067 1764.88 336.2C1770.75 330.333 1778.21 327.4 1787.28 327.4C1796.35 327.4 1803.55 330.333 1808.88 336.2C1814.75 342.067 1817.68 349.533 1817.68 358.6V733.8C1817.68 742.867 1814.75 750.333 1808.88 756.2C1803.55 762.067 1796.35 765 1787.28 765C1778.21 765 1770.75 762.067 1764.88 756.2C1759.01 750.333 1756.08 742.867 1756.08 733.8V358.6ZM1787.28 157C1799.01 157 1809.15 161 1817.68 169C1826.21 177 1830.48 187.4 1830.48 200.2C1830.48 212.467 1826.21 222.867 1817.68 231.4C1809.15 239.933 1798.75 244.2 1786.48 244.2C1774.21 244.2 1763.81 239.933 1755.28 231.4C1747.28 222.867 1743.28 212.467 1743.28 200.2C1743.28 187.4 1747.55 177 1756.08 169C1764.61 161 1775.01 157 1787.28 157ZM2180.93 323.4C2222.53 323.4 2260.13 333.267 2293.73 353C2327.86 372.2 2354.53 398.867 2373.73 433C2393.46 467.133 2403.33 505 2403.33 546.6C2403.33 588.2 2393.73 626.067 2374.53 660.2C2355.86 693.8 2330 720.467 2296.93 740.2C2264.4 759.4 2227.86 769 2187.33 769C2152.66 769 2120.93 761.8 2092.13 747.4C2063.33 732.467 2039.6 712.2 2020.93 686.6V921C2020.93 930.067 2018 937.533 2012.13 943.4C2006.26 949.267 1998.8 952.2 1989.73 952.2C1980.66 952.2 1973.2 949.267 1967.33 943.4C1962 937.533 1959.33 930.067 1959.33 921V741.8C1958.8 740.2 1958.53 737.8 1958.53 734.6V546.6C1958.53 505 1968.13 467.133 1987.33 433C2007.06 398.867 2033.73 372.2 2067.33 353C2101.46 333.267 2139.33 323.4 2180.93 323.4ZM2180.93 713C2211.33 713 2238.8 705.8 2263.33 691.4C2288.4 677 2307.86 657.267 2321.73 632.2C2336.13 606.6 2343.33 578.067 2343.33 546.6C2343.33 515.133 2336.13 486.867 2321.73 461.8C2307.86 436.2 2288.4 416.2 2263.33 401.8C2238.8 386.867 2211.33 379.4 2180.93 379.4C2150.53 379.4 2123.06 386.867 2098.53 401.8C2074 416.2 2054.53 436.2 2040.13 461.8C2026.26 486.867 2019.33 515.133 2019.33 546.6C2019.33 555.667 2019.6 562.333 2020.13 566.6C2020.66 567.667 2020.93 569 2020.93 570.6C2026.26 612.2 2043.6 646.333 2072.93 673C2102.8 699.667 2138.8 713 2180.93 713ZM2691.36 343.4C2699.89 343.4 2706.56 346.067 2711.36 351.4C2716.69 356.2 2719.36 362.6 2719.36 370.6C2719.36 378.067 2716.69 384.467 2711.36 389.8C2706.56 394.6 2699.89 397 2691.36 397H2594.56V733.8C2594.56 742.333 2591.62 749.8 2585.76 756.2C2579.89 762.067 2572.42 765 2563.36 765C2554.82 765 2547.62 762.067 2541.76 756.2C2535.89 750.333 2532.96 742.867 2532.96 733.8V397H2481.76C2473.22 397 2466.29 394.6 2460.96 389.8C2456.16 384.467 2453.76 378.067 2453.76 370.6C2453.76 362.6 2456.16 356.2 2460.96 351.4C2466.29 346.067 2473.22 343.4 2481.76 343.4H2532.96V323.4C2532.96 266.333 2548.16 221.267 2578.56 188.2C2609.49 154.6 2657.76 137.8 2723.36 137.8C2757.49 137.8 2786.82 143.4 2811.36 154.6C2836.42 165.267 2848.96 179.667 2848.96 197.8C2848.96 220.733 2835.89 232.2 2809.76 232.2C2802.29 232.2 2795.09 230.6 2788.16 227.4C2781.76 224.2 2774.02 219.133 2764.96 212.2C2754.82 204.2 2744.96 198.067 2735.36 193.8C2726.29 189 2715.89 186.6 2704.16 186.6C2669.49 186.6 2642.56 197.267 2623.36 218.6C2604.16 239.933 2594.56 274.867 2594.56 323.4V343.4H2691.36ZM2811.36 327.4C2820.42 327.4 2827.62 330.333 2832.96 336.2C2838.82 342.067 2841.76 349.533 2841.76 358.6V733.8C2841.76 742.867 2838.82 750.333 2832.96 756.2C2827.62 762.067 2820.42 765 2811.36 765C2802.29 765 2794.82 762.067 2788.96 756.2C2783.09 750.333 2780.16 742.867 2780.16 733.8V358.6C2780.16 349.533 2783.09 342.067 2788.96 336.2C2794.82 330.333 2802.29 327.4 2811.36 327.4ZM3301.31 717C3307.18 724.467 3310.11 731.667 3310.11 738.6C3310.11 746.067 3307.18 752.467 3301.31 757.8C3295.98 762.6 3289.85 765 3282.91 765C3276.51 765 3271.18 763.933 3266.91 761.8C3262.65 759.667 3258.65 755.933 3254.91 750.6L3123.71 583.4L2987.71 755.4C2982.91 761.8 2975.71 765 2966.11 765C2957.58 765 2950.65 762.333 2945.31 757C2940.51 751.667 2938.11 745.267 2938.11 737.8C2938.11 729.267 2940.78 722.067 2946.11 716.2L3084.51 543.4L2953.31 377C2947.98 371.133 2945.31 363.933 2945.31 355.4C2945.31 347.4 2947.71 340.733 2952.51 335.4C2957.31 330.067 2964.25 327.4 2973.31 327.4C2982.38 327.4 2990.11 330.6 2996.51 337L3125.31 502.6L3252.51 341.8C3259.98 332.2 3268.78 327.4 3278.91 327.4C3287.45 327.4 3294.11 330.067 3298.91 335.4C3304.25 340.733 3306.91 347.133 3306.91 354.6C3306.91 362.6 3303.98 370.333 3298.11 377.8L3165.31 542.6L3301.31 717ZM3546.15 323.4C3585.62 323.4 3620.55 332.733 3650.95 351.4C3681.35 369.533 3704.82 394.867 3721.35 427.4C3738.42 459.933 3746.95 497 3746.95 538.6C3746.95 547.133 3744.28 554.067 3738.95 559.4C3733.62 564.2 3726.68 566.6 3718.15 566.6H3394.95C3399.22 610.333 3416.28 645.8 3446.15 673C3476.02 700.2 3513.35 713.8 3558.15 713.8C3577.35 713.8 3596.55 710.6 3615.75 704.2C3635.48 697.267 3651.22 688.733 3662.95 678.6C3669.88 673.267 3677.08 670.6 3684.55 670.6C3690.42 670.6 3696.28 672.733 3702.15 677C3709.08 683.4 3712.55 690.6 3712.55 698.6C3712.55 705.533 3709.62 711.667 3703.75 717C3686.15 731.933 3663.75 744.467 3636.55 754.6C3609.35 764.2 3583.22 769 3558.15 769C3515.48 769 3477.35 759.667 3443.75 741C3410.15 721.8 3383.75 695.4 3364.55 661.8C3345.88 627.667 3336.55 589.267 3336.55 546.6C3336.55 503.4 3345.35 465 3362.95 431.4C3381.08 397.267 3405.88 370.867 3437.35 352.2C3469.35 333 3505.62 323.4 3546.15 323.4ZM3546.15 378.6C3505.62 378.6 3472.02 391.133 3445.35 416.2C3418.68 441.267 3402.42 474.333 3396.55 515.4H3689.35C3685.08 474.333 3670.15 441.267 3644.55 416.2C3618.95 391.133 3586.15 378.6 3546.15 378.6ZM4240.33 350.6C4240.86 352.2 4241.13 354.6 4241.13 357.8V545.8C4241.13 587.4 4231.26 625.267 4211.53 659.4C4192.33 693.533 4165.66 720.467 4131.53 740.2C4097.93 759.4 4060.33 769 4018.73 769C3977.13 769 3939.26 759.4 3905.13 740.2C3871.53 720.467 3844.86 693.533 3825.13 659.4C3805.93 625.267 3796.33 587.4 3796.33 545.8C3796.33 504.2 3805.66 466.6 3824.33 433C3843.53 398.867 3869.4 372.2 3901.93 353C3935 333.267 3971.8 323.4 4012.33 323.4C4047 323.4 4078.73 330.867 4107.53 345.8C4136.33 360.2 4160.06 380.2 4178.73 405.8V171.4C4178.73 162.333 4181.66 154.867 4187.53 149C4193.4 143.133 4200.86 140.2 4209.93 140.2C4219 140.2 4226.2 143.133 4231.53 149C4237.4 154.867 4240.33 162.333 4240.33 171.4V350.6ZM4018.73 713C4049.13 713 4076.6 705.8 4101.13 691.4C4125.66 676.467 4144.86 656.467 4158.73 631.4C4173.13 605.8 4180.33 577.267 4180.33 545.8C4180.33 536.733 4180.06 530.067 4179.53 525.8C4179 524.733 4178.73 523.4 4178.73 521.8C4173.4 480.2 4155.8 446.067 4125.93 419.4C4096.6 392.733 4060.86 379.4 4018.73 379.4C3988.33 379.4 3960.6 386.6 3935.53 401C3911 415.4 3891.53 435.4 3877.13 461C3863.26 486.067 3856.33 514.333 3856.33 545.8C3856.33 577.267 3863.26 605.8 3877.13 631.4C3891.53 656.467 3911 676.467 3935.53 691.4C3960.6 705.8 3988.33 713 4018.73 713Z" fill="#263238"/>
<g filter="url(#filter0_i)">
<mask id="mask0" mask-type="alpha" maskUnits="userSpaceOnUse" x="0" y="0" width="900" height="900">
<path d="M900 450C900 698.528 698.528 900 450 900C201.472 900 0 698.528 0 450C0 201.472 201.472 0 450 0C698.528 0 900 201.472 900 450Z" fill="white"/>
</mask>
<g mask="url(#mask0)">
<rect x="121.824" y="-616" width="1902.6" height="690.359" transform="rotate(37 121.824 -616)" fill="#03A9F4"/>
<rect x="-134.279" y="-303" width="1902.6" height="526.797" transform="rotate(37 -134.279 -303)" fill="#00BCD4"/>
<rect x="-141.979" y="-33.0889" width="1902.6" height="550.496" transform="rotate(37 -141.979 -33.0889)" fill="#8BC34A"/>
<rect x="-320.279" y="126" width="1902.6" height="793.8" transform="rotate(37 -320.279 126)" fill="#CDDC39"/>
</g>
</g>
<g filter="url(#filter1_d)">
<mask id="mask1" mask-type="alpha" maskUnits="userSpaceOnUse" x="157" y="174" width="603" height="566">
<path d="M623.877 203.01L361.91 533.214C351.732 546.043 336.48 553.488 320.374 553.488H207.522C193.65 553.488 180.47 559.718 171.442 570.543C157.684 587.039 150 639 167.5 655.5L248.5 719C248.5 719 276.189 740 306.5 740H325C351.999 740 355.726 727.519 372.787 706.011L752.92 226.79C757.499 221.018 760 213.797 760 206.349C760 188.483 745.908 174 728.526 174H683.311C660.265 174 638.441 184.652 623.877 203.01Z" fill="white"/>
</mask>
<g mask="url(#mask1)">
<rect x="-80.4154" y="19.0684" width="1128.7" height="928.534" fill="white"/>
</g>
</g>
<defs>
<filter id="filter0_i" x="0" y="0" width="900" height="904" filterUnits="userSpaceOnUse" color-interpolation-filters="sRGB">
<feFlood flood-opacity="0" result="BackgroundImageFix"/>
<feBlend mode="normal" in="SourceGraphic" in2="BackgroundImageFix" result="shape"/>
<feColorMatrix in="SourceAlpha" type="matrix" values="0 0 0 0 0 0 0 0 0 0 0 0 0 0 0 0 0 0 127 0" result="hardAlpha"/>
<feOffset dy="4"/>
<feGaussianBlur stdDeviation="75"/>
<feComposite in2="hardAlpha" operator="arithmetic" k2="-1" k3="1"/>
<feColorMatrix type="matrix" values="0 0 0 0 0 0 0 0 0 0 0 0 0 0 0 0 0 0 0.3 0"/>
<feBlend mode="normal" in2="shape" result="effect1_innerShadow"/>
</filter>
<filter id="filter1_d" x="57.358" y="78" width="802.642" height="766" filterUnits="userSpaceOnUse" color-interpolation-filters="sRGB">
<feFlood flood-opacity="0" result="BackgroundImageFix"/>
<feColorMatrix in="SourceAlpha" type="matrix" values="0 0 0 0 0 0 0 0 0 0 0 0 0 0 0 0 0 0 127 0"/>
<feOffset dy="4"/>
<feGaussianBlur stdDeviation="50"/>
<feColorMatrix type="matrix" values="0 0 0 0 0 0 0 0 0 0 0 0 0 0 0 0 0 0 0.25 0"/>
<feBlend mode="normal" in2="BackgroundImageFix" result="effect1_dropShadow"/>
<feBlend mode="normal" in="SourceGraphic" in2="effect1_dropShadow" result="shape"/>
</filter>
</defs>
</svg>
