<svg width="3439" height="878" viewBox="0 0 3439 878" fill="none" xmlns="http://www.w3.org/2000/svg">
<g filter="url(#filter0_d)">
<path d="M81.8877 156.677L175.179 0L40.3958 0.334883L0 42.6243L81.8877 156.677Z" transform="translate(4 512.068)" fill="#CDDC39"/>
<path d="M196 0L0 0.334906L41.691 156.688L196 0Z" transform="translate(44.0005 512.312)" fill="#8BC34A"/>
<path d="M167.207 599.74H0L587.018 0H695.061L718.112 30.7559L167.207 599.74Z" transform="translate(85.8877 69)" fill="#0288D1"/>
<path d="M0 96.318L40.1871 0L62.9196 30.7559L0 96.318Z" transform="translate(741.081 69)" fill="#2196F3" fill-opacity="0.5"/>
<path d="M0 599.74L87.5504 339.039L419.811 0L0 599.74Z" transform="translate(253.093 69)" fill="#95ECFA" fill-opacity="0.5"/>
<path d="M400.435 96.3181L0 339.039L332.261 0L400.435 96.3181Z" transform="translate(340.645 69)" fill="#00BCD4" fill-opacity="0.5"/>
<path d="M249.094 114.053L0 0L81.8876 114.053H249.094Z" transform="translate(4 554.688)" fill="#CDDC39" fill-opacity="0.5"/>
<path d="M0 503.422L87.5503 242.722L487.985 0L0 503.422Z" transform="translate(253.093 165.321)" fill="#009688" fill-opacity="0.5"/>
<path d="M419.811 0L487.985 96.318L0 599.74L419.811 0Z" transform="translate(253.093 69)" fill="#2196F3" fill-opacity="0.5"/>
<path d="M167.207 260.701L254.757 0L0 260.701H167.207Z" transform="translate(85.8877 408.042)" fill="#009688" fill-opacity="0.87"/>
</g>
<g filter="url(#filter1_d)">
<path d="M415.1 617.8C421.633 617.8 427 620.367 431.2 625.5C435.867 630.167 438.2 636.467 438.2 644.4C438.2 652.333 435.167 658.867 429.1 664C423.033 668.667 415.333 671 406 671H397.6C378.933 671 362.133 665.867 347.2 655.6C332.733 645.333 321.3 631.1 312.9 612.9C304.5 594.233 300.3 573.233 300.3 549.9V183.8C278.833 177.267 258.067 174 238 174C171.733 174 138.6 208.533 138.6 277.6V302.1H217C224.467 302.1 230.3 304.433 234.5 309.1C239.167 313.3 241.5 318.9 241.5 325.9C241.5 332.433 239.167 338.033 234.5 342.7C230.3 346.9 224.467 349 217 349H138.6V643.7C138.6 651.167 136.033 657.7 130.9 663.3C125.767 668.433 119.233 671 111.3 671C103.833 671 97.5333 668.433 92.4 663.3C87.2667 658.167 84.7 651.633 84.7 643.7V349H39.9C32.4333 349 26.3667 346.9 21.7 342.7C17.5 338.033 15.4 332.433 15.4 325.9C15.4 318.9 17.5 313.3 21.7 309.1C26.3667 304.433 32.4333 302.1 39.9 302.1H84.7V276.2C84.7 247.267 90.3 221.367 101.5 198.5C113.167 175.633 130.2 157.667 152.6 144.6C175.467 131.067 203 124.3 235.2 124.3C258.533 124.3 281.867 127.8 305.2 134.8C310.8 127.8 318.267 124.3 327.6 124.3C335.533 124.3 341.833 126.867 346.5 132C351.633 136.667 354.2 142.967 354.2 150.9V549.9C354.2 569.967 358.167 586.3 366.1 598.9C374.5 611.5 385 617.8 397.6 617.8H415.1ZM881.721 290.2C892.454 294.4 897.821 301.167 897.821 310.5C897.821 314.7 896.888 318.9 895.021 323.1L668.221 821.5C664.021 832.233 657.254 837.6 647.921 837.6C643.254 837.6 639.054 836.667 635.321 834.8C624.588 830.6 619.221 823.6 619.221 813.8C619.221 809.6 620.154 805.4 622.021 801.2L691.321 647.9V647.2L535.221 323.8C533.354 320.067 532.421 315.867 532.421 311.2C532.421 301.4 537.554 294.4 547.821 290.2C551.554 288.333 555.754 287.4 560.421 287.4C570.221 287.4 577.221 292.3 581.421 302.1L717.921 589.8L848.121 302.8C852.788 292.533 859.788 287.4 869.121 287.4C873.321 287.4 877.521 288.333 881.721 290.2ZM1167.92 284.6C1198.72 284.6 1225.55 289.967 1248.42 300.7C1271.28 310.967 1289.72 325.433 1303.72 344.1C1307.45 350.167 1309.32 355.533 1309.32 360.2C1309.32 368.133 1305.58 374.433 1298.12 379.1C1294.85 381.433 1290.42 382.6 1284.82 382.6C1275.02 382.6 1266.85 379.1 1260.32 372.1C1237.45 345.967 1206.18 332.9 1166.52 332.9C1140.85 332.9 1120.32 338.267 1104.92 349C1089.52 359.267 1081.82 372.333 1081.82 388.2C1081.82 405 1089.05 418.533 1103.52 428.8C1117.98 438.6 1143.65 446.533 1180.52 452.6C1230.45 461 1266.15 474.767 1287.62 493.9C1309.08 512.567 1319.82 535.9 1319.82 563.9C1319.82 585.367 1313.28 604.5 1300.22 621.3C1287.62 638.1 1269.88 651.167 1247.02 660.5C1224.15 669.833 1198.25 674.5 1169.32 674.5C1140.38 674.5 1112.62 669.6 1086.02 659.8C1059.42 650 1037.95 636.233 1021.62 618.5C1016.95 612.9 1014.62 607.533 1014.62 602.4C1014.62 594.467 1018.35 587.467 1025.82 581.4C1031.42 577.2 1037.25 575.1 1043.32 575.1C1051.25 575.1 1058.02 578.367 1063.62 584.9C1074.82 597.967 1089.52 608 1107.72 615C1126.38 622 1146.92 625.5 1169.32 625.5C1201.98 625.5 1226.48 619.9 1242.82 608.7C1259.15 597.5 1267.55 582.8 1268.02 564.6C1268.02 547.8 1259.85 533.8 1243.52 522.6C1227.18 511.4 1201.28 503 1165.82 497.4C1120.08 489.933 1085.78 477.1 1062.92 458.9C1040.52 440.233 1029.32 417.833 1029.32 391.7C1029.32 357.633 1042.38 331.267 1068.52 312.6C1095.12 293.933 1128.25 284.6 1167.92 284.6ZM1651.66 617.1C1659.13 617.1 1665.19 619.667 1669.86 624.8C1674.53 629.933 1676.86 636.467 1676.86 644.4C1676.86 651.867 1674.06 658.167 1668.46 663.3C1662.86 668.433 1655.86 671 1647.46 671H1632.76C1608.03 671 1585.86 665.167 1566.26 653.5C1546.66 641.367 1531.26 625.267 1520.06 605.2C1509.33 584.667 1503.96 561.567 1503.96 535.9V349H1458.46C1450.99 349 1444.93 346.9 1440.26 342.7C1436.06 338.033 1433.96 332.433 1433.96 325.9C1433.96 318.9 1436.06 313.3 1440.26 309.1C1444.93 304.433 1450.99 302.1 1458.46 302.1H1503.96V193.6C1503.96 185.667 1506.29 179.133 1510.96 174C1516.09 168.867 1522.63 166.3 1530.56 166.3C1538.49 166.3 1545.03 168.867 1550.16 174C1555.29 179.133 1557.86 185.667 1557.86 193.6V302.1H1636.96C1644.43 302.1 1650.26 304.433 1654.46 309.1C1659.13 313.3 1661.46 318.9 1661.46 325.9C1661.46 332.433 1659.13 338.033 1654.46 342.7C1650.26 346.9 1644.43 349 1636.96 349H1557.86V535.9C1557.86 559.7 1564.86 579.3 1578.86 594.7C1592.86 609.633 1610.83 617.1 1632.76 617.1H1651.66ZM2007.5 283.9C2027.1 283.9 2042.5 286.467 2053.7 291.6C2065.37 296.733 2071.2 303.967 2071.2 313.3C2071.2 316.1 2070.97 318.2 2070.5 319.6C2068.63 326.133 2065.6 330.567 2061.4 332.9C2057.67 335.233 2052.3 336.4 2045.3 336.4C2041.1 336.4 2033.87 335.933 2023.6 335C2019.87 334.533 2014.27 334.3 2006.8 334.3C1971.8 334.3 1943.1 343.633 1920.7 362.3C1898.77 380.967 1887.8 405.233 1887.8 435.1V644.4C1887.8 652.8 1885.47 659.333 1880.8 664C1876.13 668.667 1869.6 671 1861.2 671C1852.8 671 1846.27 668.667 1841.6 664C1836.93 659.333 1834.6 652.8 1834.6 644.4V314.7C1834.6 306.3 1836.93 299.767 1841.6 295.1C1846.27 290.433 1852.8 288.1 1861.2 288.1C1869.6 288.1 1876.13 290.433 1880.8 295.1C1885.47 299.767 1887.8 306.3 1887.8 314.7V345.5C1901.33 325.9 1918.6 310.733 1939.6 300C1960.6 289.267 1983.23 283.9 2007.5 283.9Z" transform="translate(785)" fill="white"/>
</g>
<defs>
<filter id="filter0_d" x="0" y="69" width="808" height="608" filterUnits="userSpaceOnUse" color-interpolation-filters="sRGB">
<feFlood flood-opacity="0" result="BackgroundImageFix"/>
<feColorMatrix in="SourceAlpha" type="matrix" values="0 0 0 0 0 0 0 0 0 0 0 0 0 0 0 0 0 0 255 0"/>
<feOffset dy="4"/>
<feGaussianBlur stdDeviation="2"/>
<feColorMatrix type="matrix" values="0 0 0 0 0 0 0 0 0 0 0 0 0 0 0 0 0 0 0.25 0"/>
<feBlend mode="normal" in2="BackgroundImageFix" result="effect1_dropShadow"/>
<feBlend mode="normal" in="SourceGraphic" in2="effect1_dropShadow" result="shape"/>
</filter>
<filter id="filter1_d" x="800.4" y="124.3" width="2095.8" height="753.3" filterUnits="userSpaceOnUse" color-interpolation-filters="sRGB">
<feFlood flood-opacity="0" result="BackgroundImageFix"/>
<feColorMatrix in="SourceAlpha" type="matrix" values="0 0 0 0 0 0 0 0 0 0 0 0 0 0 0 0 0 0 255 0"/>
<feOffset dx="20" dy="20"/>
<feGaussianBlur stdDeviation="10"/>
<feColorMatrix type="matrix" values="0 0 0 0 0 0 0 0 0 0 0 0 0 0 0 0 0 0 0.2 0"/>
<feBlend mode="normal" in2="BackgroundImageFix" result="effect1_dropShadow"/>
<feBlend mode="normal" in="SourceGraphic" in2="effect1_dropShadow" result="shape"/>
</filter>
</defs>
</svg>
