<svg width="407" height="93" viewBox="0 0 407 93" fill="none" xmlns="http://www.w3.org/2000/svg">
<path d="M372.147 65.2563L383.946 35.7667H394.112H407V93H0V21.6415H38.5719H50.9858L63.1218 35.7667H83.7941L92.5528 21.6415H126.244L143.283 35.7667H159.747L177.723 49.3964H205.874L220.345 35.7667H235.061L249.389 49.3964H256.36H264.24L277.54 67.7344H286.565H308.251H321.876H329.413H337.393L345.427 62.2825H351.623H359.118L365.768 65.2563H372.147Z" fill="url(#paint0_linear)" fill-opacity="0.5"/>
<path d="M372.147 65.2563L383.946 35.7667H394.112H407V93H0V21.6415H38.5719H50.9858L63.1218 35.7667H83.7941L92.5528 21.6415H126.244L143.283 35.7667H159.747L177.723 49.3964H205.874L220.345 35.7667H235.061L249.389 49.3964H256.36H264.24L277.54 67.7344H286.565H308.251H321.876H329.413H337.393L345.427 62.2825H351.623H359.118L365.768 65.2563H372.147Z" fill="url(#paint1_linear)"/>
<path d="M10.3613 40.2478C10.3613 41.6541 10.0651 42.7039 9.47266 43.3972C8.88021 44.0906 7.9834 44.4373 6.78223 44.4373C6.35905 44.4373 6.03841 44.4145 5.82031 44.3689V43.158C6.09375 43.2263 6.38021 43.2605 6.67969 43.2605C7.18424 43.2605 7.59928 43.1873 7.9248 43.0408C8.25033 42.8911 8.49935 42.6583 8.67188 42.3426C8.8444 42.0235 8.94368 41.5857 8.96973 41.0291H8.91113C8.72233 41.3351 8.50423 41.5499 8.25684 41.6736C8.00944 41.7973 7.7002 41.8592 7.3291 41.8592C6.70736 41.8592 6.21745 41.6606 5.85938 41.2635C5.5013 40.8631 5.32227 40.3081 5.32227 39.5984C5.32227 38.8334 5.53874 38.2296 5.97168 37.7869C6.40788 37.3409 7.00033 37.118 7.74902 37.118C8.27637 37.118 8.73698 37.2416 9.13086 37.489C9.52799 37.7364 9.83236 38.0961 10.0439 38.5681C10.2555 39.0369 10.3613 39.5968 10.3613 40.2478ZM7.77832 38.3289C7.46582 38.3289 7.22168 38.4363 7.0459 38.6512C6.87012 38.866 6.78223 39.1752 6.78223 39.5789C6.78223 39.9239 6.86198 40.1974 7.02148 40.3992C7.18099 40.601 7.4235 40.7019 7.74902 40.7019C8.05501 40.7019 8.31706 40.6027 8.53516 40.4041C8.75326 40.2023 8.8623 39.9711 8.8623 39.7107C8.8623 39.3234 8.75977 38.9962 8.55469 38.7293C8.35286 38.4624 8.09408 38.3289 7.77832 38.3289ZM17.0645 40.7703C17.0645 42.017 16.8594 42.9399 16.4492 43.5388C16.0423 44.1378 15.4141 44.4373 14.5645 44.4373C13.7409 44.4373 13.1191 44.128 12.6992 43.5096C12.2826 42.8911 12.0742 41.978 12.0742 40.7703C12.0742 39.5105 12.2777 38.5828 12.6846 37.9871C13.0915 37.3881 13.7181 37.0887 14.5645 37.0887C15.388 37.0887 16.0098 37.4012 16.4297 38.0262C16.8529 38.6512 17.0645 39.5659 17.0645 40.7703ZM13.5732 40.7703C13.5732 41.6459 13.6481 42.2742 13.7979 42.6551C13.9508 43.0327 14.2064 43.2215 14.5645 43.2215C14.916 43.2215 15.1699 43.0294 15.3262 42.6453C15.4824 42.2612 15.5605 41.6362 15.5605 40.7703C15.5605 39.8946 15.4808 39.2664 15.3213 38.8855C15.165 38.5014 14.9128 38.3094 14.5645 38.3094C14.2096 38.3094 13.9557 38.5014 13.8027 38.8855C13.6497 39.2664 13.5732 39.8946 13.5732 40.7703ZM23.7773 40.7703C23.7773 42.017 23.5723 42.9399 23.1621 43.5388C22.7552 44.1378 22.127 44.4373 21.2773 44.4373C20.4538 44.4373 19.832 44.128 19.4121 43.5096C18.9954 42.8911 18.7871 41.978 18.7871 40.7703C18.7871 39.5105 18.9906 38.5828 19.3975 37.9871C19.8044 37.3881 20.431 37.0887 21.2773 37.0887C22.1009 37.0887 22.7227 37.4012 23.1426 38.0262C23.5658 38.6512 23.7773 39.5659 23.7773 40.7703ZM20.2861 40.7703C20.2861 41.6459 20.361 42.2742 20.5107 42.6551C20.6637 43.0327 20.9193 43.2215 21.2773 43.2215C21.6289 43.2215 21.8828 43.0294 22.0391 42.6453C22.1953 42.2612 22.2734 41.6362 22.2734 40.7703C22.2734 39.8946 22.1937 39.2664 22.0342 38.8855C21.8779 38.5014 21.6257 38.3094 21.2773 38.3094C20.9225 38.3094 20.6686 38.5014 20.5156 38.8855C20.3626 39.2664 20.2861 39.8946 20.2861 40.7703ZM33.7461 44.3396H29.6348V37.201H33.7461V38.4412H31.1484V40.0086H33.5654V41.2488H31.1484V43.0896H33.7461V44.3396ZM42.0508 37.201V41.8201C42.0508 42.3474 41.932 42.8097 41.6943 43.2068C41.46 43.604 41.1198 43.9083 40.6738 44.1199C40.2279 44.3315 39.7005 44.4373 39.0918 44.4373C38.1738 44.4373 37.4609 44.2029 36.9531 43.7342C36.4453 43.2622 36.1914 42.6176 36.1914 41.8006V37.201H37.7002V41.5711C37.7002 42.1212 37.8109 42.5249 38.0322 42.782C38.2536 43.0392 38.6198 43.1678 39.1309 43.1678C39.6257 43.1678 39.9837 43.0392 40.2051 42.782C40.4297 42.5216 40.542 42.1147 40.542 41.5613V37.201H42.0508ZM46.3125 40.3699H46.8008C47.2793 40.3699 47.6325 40.2902 47.8604 40.1306C48.0882 39.9711 48.2021 39.7205 48.2021 39.3787C48.2021 39.0402 48.085 38.7993 47.8506 38.656C47.6195 38.5128 47.2598 38.4412 46.7715 38.4412H46.3125V40.3699ZM46.3125 41.6004V44.3396H44.7988V37.201H46.8789C47.849 37.201 48.5667 37.3784 49.0322 37.7332C49.4977 38.0847 49.7305 38.6202 49.7305 39.3396C49.7305 39.7596 49.6149 40.1339 49.3838 40.4627C49.1527 40.7882 48.8255 41.0437 48.4023 41.2293C49.4766 42.8341 50.1764 43.8709 50.502 44.3396H48.8223L47.1182 41.6004H46.3125Z" fill="#FAFAFA"/>
<path d="M5.35156 61.7791C5.35156 60.3663 5.64941 59.3149 6.24512 58.6248C6.84408 57.9347 7.73926 57.5896 8.93066 57.5896C9.33757 57.5896 9.65658 57.614 9.8877 57.6629V58.8689C9.59798 58.8038 9.31152 58.7713 9.02832 58.7713C8.51074 58.7713 8.08757 58.8494 7.75879 59.0056C7.43327 59.1619 7.18913 59.393 7.02637 59.699C6.86361 60.005 6.76758 60.4396 6.73828 61.0027H6.80176C7.12402 60.4493 7.63997 60.1726 8.34961 60.1726C8.98763 60.1726 9.4873 60.3728 9.84863 60.7732C10.21 61.1736 10.3906 61.727 10.3906 62.4334C10.3906 63.1951 10.1758 63.7989 9.74609 64.2449C9.31641 64.6876 8.7207 64.909 7.95898 64.909C7.43164 64.909 6.97103 64.7869 6.57715 64.5428C6.18652 64.2986 5.88379 63.9422 5.66895 63.4734C5.45736 63.0047 5.35156 62.4399 5.35156 61.7791ZM7.92969 63.7029C8.25195 63.7029 8.49935 63.5955 8.67188 63.3806C8.8444 63.1625 8.93066 62.8533 8.93066 62.4529C8.93066 62.1046 8.84928 61.8312 8.68652 61.6326C8.52702 61.4308 8.28451 61.3299 7.95898 61.3299C7.65299 61.3299 7.39095 61.4291 7.17285 61.6277C6.95801 61.8263 6.85059 62.0574 6.85059 62.3211C6.85059 62.7084 6.9515 63.0356 7.15332 63.3025C7.3584 63.5694 7.61719 63.7029 7.92969 63.7029ZM17.0645 61.242C17.0645 62.4887 16.8594 63.4116 16.4492 64.0105C16.0423 64.6095 15.4141 64.909 14.5645 64.909C13.7409 64.909 13.1191 64.5997 12.6992 63.9812C12.2826 63.3627 12.0742 62.4497 12.0742 61.242C12.0742 59.9822 12.2777 59.0545 12.6846 58.4588C13.0915 57.8598 13.7181 57.5603 14.5645 57.5603C15.388 57.5603 16.0098 57.8728 16.4297 58.4978C16.8529 59.1228 17.0645 60.0375 17.0645 61.242ZM13.5732 61.242C13.5732 62.1176 13.6481 62.7459 13.7979 63.1267C13.9508 63.5043 14.2064 63.6931 14.5645 63.6931C14.916 63.6931 15.1699 63.5011 15.3262 63.117C15.4824 62.7329 15.5605 62.1079 15.5605 61.242C15.5605 60.3663 15.4808 59.7381 15.3213 59.3572C15.165 58.9731 14.9128 58.781 14.5645 58.781C14.2096 58.781 13.9557 58.9731 13.8027 59.3572C13.6497 59.7381 13.5732 60.3663 13.5732 61.242ZM23.7773 61.242C23.7773 62.4887 23.5723 63.4116 23.1621 64.0105C22.7552 64.6095 22.127 64.909 21.2773 64.909C20.4538 64.909 19.832 64.5997 19.4121 63.9812C18.9954 63.3627 18.7871 62.4497 18.7871 61.242C18.7871 59.9822 18.9906 59.0545 19.3975 58.4588C19.8044 57.8598 20.431 57.5603 21.2773 57.5603C22.1009 57.5603 22.7227 57.8728 23.1426 58.4978C23.5658 59.1228 23.7773 60.0375 23.7773 61.242ZM20.2861 61.242C20.2861 62.1176 20.361 62.7459 20.5107 63.1267C20.6637 63.5043 20.9193 63.6931 21.2773 63.6931C21.6289 63.6931 21.8828 63.5011 22.0391 63.117C22.1953 62.7329 22.2734 62.1079 22.2734 61.242C22.2734 60.3663 22.1937 59.7381 22.0342 59.3572C21.8779 58.9731 21.6257 58.781 21.2773 58.781C20.9225 58.781 20.6686 58.9731 20.5156 59.3572C20.3626 59.7381 20.2861 60.3663 20.2861 61.242ZM33.7461 64.8113H29.6348V57.6726H33.7461V58.9129H31.1484V60.4803H33.5654V61.7205H31.1484V63.5613H33.7461V64.8113ZM42.0508 57.6726V62.2918C42.0508 62.8191 41.932 63.2814 41.6943 63.6785C41.46 64.0756 41.1198 64.38 40.6738 64.5916C40.2279 64.8032 39.7005 64.909 39.0918 64.909C38.1738 64.909 37.4609 64.6746 36.9531 64.2058C36.4453 63.7338 36.1914 63.0893 36.1914 62.2722V57.6726H37.7002V62.0428C37.7002 62.5929 37.8109 62.9965 38.0322 63.2537C38.2536 63.5109 38.6198 63.6394 39.1309 63.6394C39.6257 63.6394 39.9837 63.5109 40.2051 63.2537C40.4297 62.9933 40.542 62.5864 40.542 62.033V57.6726H42.0508ZM46.3125 60.8416H46.8008C47.2793 60.8416 47.6325 60.7618 47.8604 60.6023C48.0882 60.4428 48.2021 60.1922 48.2021 59.8504C48.2021 59.5118 48.085 59.2709 47.8506 59.1277C47.6195 58.9845 47.2598 58.9129 46.7715 58.9129H46.3125V60.8416ZM46.3125 62.0721V64.8113H44.7988V57.6726H46.8789C47.849 57.6726 48.5667 57.85 49.0322 58.2049C49.4977 58.5564 49.7305 59.0919 49.7305 59.8113C49.7305 60.2312 49.6149 60.6056 49.3838 60.9344C49.1527 61.2599 48.8255 61.5154 48.4023 61.701C49.4766 63.3058 50.1764 64.3426 50.502 64.8113H48.8223L47.1182 62.0721H46.3125Z" fill="#FAFAFA"/>
<path d="M10.1123 80.3259C10.1123 80.7719 9.97721 81.1511 9.70703 81.4636C9.43685 81.7761 9.05762 81.991 8.56934 82.1082V82.1375C9.14551 82.2091 9.58171 82.3848 9.87793 82.6648C10.1742 82.9415 10.3223 83.3158 10.3223 83.7878C10.3223 84.4747 10.0732 85.0102 9.5752 85.3943C9.07715 85.7751 8.36589 85.9656 7.44141 85.9656C6.66667 85.9656 5.97982 85.837 5.38086 85.5798V84.2957C5.65755 84.4356 5.96191 84.5496 6.29395 84.6375C6.62598 84.7253 6.95475 84.7693 7.28027 84.7693C7.77832 84.7693 8.14616 84.6847 8.38379 84.5154C8.62142 84.3461 8.74023 84.0743 8.74023 83.7C8.74023 83.3647 8.60352 83.127 8.33008 82.9871C8.05664 82.8471 7.62044 82.7771 7.02148 82.7771H6.47949V81.6199H7.03125C7.58464 81.6199 7.98828 81.5483 8.24219 81.405C8.49935 81.2585 8.62793 81.0095 8.62793 80.658C8.62793 80.1176 8.28939 79.8474 7.6123 79.8474C7.37793 79.8474 7.13867 79.8865 6.89453 79.9646C6.65365 80.0427 6.38509 80.1778 6.08887 80.3699L5.39062 79.3298C6.04167 78.8611 6.81803 78.6267 7.71973 78.6267C8.45866 78.6267 9.04134 78.7764 9.46777 79.0759C9.89746 79.3754 10.1123 79.7921 10.1123 80.3259ZM17.0645 82.2986C17.0645 83.5453 16.8594 84.4682 16.4492 85.0671C16.0423 85.6661 15.4141 85.9656 14.5645 85.9656C13.7409 85.9656 13.1191 85.6563 12.6992 85.0378C12.2826 84.4194 12.0742 83.5063 12.0742 82.2986C12.0742 81.0388 12.2777 80.1111 12.6846 79.5154C13.0915 78.9164 13.7181 78.6169 14.5645 78.6169C15.388 78.6169 16.0098 78.9294 16.4297 79.5544C16.8529 80.1794 17.0645 81.0942 17.0645 82.2986ZM13.5732 82.2986C13.5732 83.1742 13.6481 83.8025 13.7979 84.1833C13.9508 84.561 14.2064 84.7498 14.5645 84.7498C14.916 84.7498 15.1699 84.5577 15.3262 84.1736C15.4824 83.7895 15.5605 83.1645 15.5605 82.2986C15.5605 81.4229 15.4808 80.7947 15.3213 80.4138C15.165 80.0297 14.9128 79.8376 14.5645 79.8376C14.2096 79.8376 13.9557 80.0297 13.8027 80.4138C13.6497 80.7947 13.5732 81.4229 13.5732 82.2986ZM23.7773 82.2986C23.7773 83.5453 23.5723 84.4682 23.1621 85.0671C22.7552 85.6661 22.127 85.9656 21.2773 85.9656C20.4538 85.9656 19.832 85.6563 19.4121 85.0378C18.9954 84.4194 18.7871 83.5063 18.7871 82.2986C18.7871 81.0388 18.9906 80.1111 19.3975 79.5154C19.8044 78.9164 20.431 78.6169 21.2773 78.6169C22.1009 78.6169 22.7227 78.9294 23.1426 79.5544C23.5658 80.1794 23.7773 81.0942 23.7773 82.2986ZM20.2861 82.2986C20.2861 83.1742 20.361 83.8025 20.5107 84.1833C20.6637 84.561 20.9193 84.7498 21.2773 84.7498C21.6289 84.7498 21.8828 84.5577 22.0391 84.1736C22.1953 83.7895 22.2734 83.1645 22.2734 82.2986C22.2734 81.4229 22.1937 80.7947 22.0342 80.4138C21.8779 80.0297 21.6257 79.8376 21.2773 79.8376C20.9225 79.8376 20.6686 80.0297 20.5156 80.4138C20.3626 80.7947 20.2861 81.4229 20.2861 82.2986ZM33.7461 85.8679H29.6348V78.7292H33.7461V79.9695H31.1484V81.5369H33.5654V82.7771H31.1484V84.6179H33.7461V85.8679ZM42.0508 78.7292V83.3484C42.0508 83.8757 41.932 84.338 41.6943 84.7351C41.46 85.1322 41.1198 85.4366 40.6738 85.6482C40.2279 85.8598 39.7005 85.9656 39.0918 85.9656C38.1738 85.9656 37.4609 85.7312 36.9531 85.2625C36.4453 84.7904 36.1914 84.1459 36.1914 83.3289V78.7292H37.7002V83.0994C37.7002 83.6495 37.8109 84.0531 38.0322 84.3103C38.2536 84.5675 38.6198 84.696 39.1309 84.696C39.6257 84.696 39.9837 84.5675 40.2051 84.3103C40.4297 84.0499 40.542 83.643 40.542 83.0896V78.7292H42.0508ZM46.3125 81.8982H46.8008C47.2793 81.8982 47.6325 81.8184 47.8604 81.6589C48.0882 81.4994 48.2021 81.2488 48.2021 80.907C48.2021 80.5684 48.085 80.3276 47.8506 80.1843C47.6195 80.0411 47.2598 79.9695 46.7715 79.9695H46.3125V81.8982ZM46.3125 83.1287V85.8679H44.7988V78.7292H46.8789C47.849 78.7292 48.5667 78.9067 49.0322 79.2615C49.4977 79.613 49.7305 80.1485 49.7305 80.8679C49.7305 81.2878 49.6149 81.6622 49.3838 81.991C49.1527 82.3165 48.8255 82.572 48.4023 82.7576C49.4766 84.3624 50.1764 85.3992 50.502 85.8679H48.8223L47.1182 83.1287H46.3125Z" fill="#FAFAFA"/>
<line x1="67.8351" x2="67.8351" y2="93" stroke="#FAFAFA" stroke-dasharray="2.5 2.5"/>
<line x1="143.5" x2="143.5" y2="93" stroke="#FAFAFA" stroke-dasharray="2.5 2.5"/>
<line x1="218.5" x2="218.5" y2="93" stroke="#FAFAFA" stroke-dasharray="2.5 2.5"/>
<line x1="293.5" x2="293.5" y2="93" stroke="#FAFAFA" stroke-dasharray="2.5 2.5"/>
<line x1="368.5" x2="368.5" y2="93" stroke="#FAFAFA" stroke-dasharray="2.5 2.5"/>
<defs>
<linearGradient id="paint0_linear" x1="203.5" y1="21.6415" x2="203.5" y2="76.6226" gradientUnits="userSpaceOnUse">
<stop stop-color="#0288D1"/>
<stop offset="1" stop-color="#009688" stop-opacity="0.87"/>
</linearGradient>
<linearGradient id="paint1_linear" x1="231.875" y1="21.6415" x2="407" y2="21.6415" gradientUnits="userSpaceOnUse">
<stop offset="0.873125" stop-color="white" stop-opacity="0"/>
<stop offset="0.9999" stop-color="white"/>
</linearGradient>
</defs>
</svg>
