<svg width="100" height="100" viewBox="0 0 100 100" fill="none" xmlns="http://www.w3.org/2000/svg">
<path d="M52.0833 45.8333H48.7917L47.625 44.7083C51.7083 39.9583 54.1667 33.7917 54.1667 27.0833C54.1667 12.125 42.0417 0 27.0833 0C12.125 0 0 12.125 0 27.0833C0 42.0417 12.125 54.1667 27.0833 54.1667C33.7917 54.1667 39.9583 51.7083 44.7083 47.625L45.8333 48.7917V52.0833L66.6667 72.875L72.875 66.6667L52.0833 45.8333V45.8333ZM27.0833 45.8333C16.7083 45.8333 8.33333 37.4583 8.33333 27.0833C8.33333 16.7083 16.7083 8.33333 27.0833 8.33333C37.4583 8.33333 45.8333 16.7083 45.8333 27.0833C45.8333 37.4583 37.4583 45.8333 27.0833 45.8333Z" transform="translate(12.5 12.5)" fill="url(#paint0_linear)"/>
<defs>
<linearGradient id="paint0_linear" x2="1" gradientUnits="userSpaceOnUse" gradientTransform="translate(72.875) scale(72.875) rotate(90)">
<stop stop-color="#2196F3"/>
<stop offset="1" stop-color="#00BCD4"/>
</linearGradient>
</defs>
</svg>
