<svg width="100" height="100" viewBox="0 0 100 100" fill="none" xmlns="http://www.w3.org/2000/svg">
<path d="M41.6667 0C18.6667 0 0 18.6667 0 41.6667C0 64.6667 18.6667 83.3333 41.6667 83.3333C64.6667 83.3333 83.3333 64.6667 83.3333 41.6667C83.3333 18.6667 64.6667 0 41.6667 0ZM37.5 74.7083C21.0417 72.6667 8.33333 58.6667 8.33333 41.6667C8.33333 39.0833 8.66667 36.625 9.20833 34.2083L29.1667 54.1667V58.3333C29.1667 62.9167 32.9167 66.6667 37.5 66.6667V74.7083ZM66.25 64.125C65.1667 60.75 62.0833 58.3333 58.3333 58.3333H54.1667V45.8333C54.1667 43.5417 52.2917 41.6667 50 41.6667H25V33.3333H33.3333C35.625 33.3333 37.5 31.4583 37.5 29.1667V20.8333H45.8333C50.4167 20.8333 54.1667 17.0833 54.1667 12.5V10.7917C66.375 15.75 75 27.7083 75 41.6667C75 50.3333 71.6667 58.2083 66.25 64.125Z" transform="translate(8.33313 8.33313)" fill="url(#paint0_linear)"/>
<defs>
<linearGradient id="paint0_linear" x2="1" gradientUnits="userSpaceOnUse" gradientTransform="translate(83.3333) scale(83.3333) rotate(90)">
<stop stop-color="#0288D1"/>
<stop offset="1" stop-color="#02CED1"/>
</linearGradient>
</defs>
</svg>
