<svg width="100" height="100" viewBox="0 0 100 100" fill="none" xmlns="http://www.w3.org/2000/svg">
<path d="M23.125 6.58333L17.1667 0.625C7.16667 8.25 0.583333 20 -1.19209e-07 33.3333H8.33333C8.95833 22.2917 14.625 12.625 23.125 6.58333V6.58333ZM74.75 33.3333H83.0833C82.4583 20 75.875 8.25 65.9167 0.625L60 6.58333C68.4167 12.625 74.125 22.2917 74.75 33.3333ZM66.5417 35.4167C66.5417 22.625 59.7083 11.9167 47.7917 9.08333V6.25C47.7917 2.79167 45 0 41.5417 0C38.0833 0 35.2917 2.79167 35.2917 6.25V9.08333C23.3333 11.9167 16.5417 22.5833 16.5417 35.4167V56.25L8.20833 64.5833V68.75H74.875V64.5833L66.5417 56.25V35.4167ZM41.5417 81.25C42.125 81.25 42.6667 81.2083 43.2083 81.0833C45.9167 80.5 48.125 78.6667 49.2083 76.1667C49.625 75.1667 49.8333 74.0833 49.8333 72.9167H33.1667C33.2083 77.5 36.9167 81.25 41.5417 81.25Z" transform="translate(8.4585 10.4166)" fill="url(#paint0_linear)"/>
<defs>
<linearGradient id="paint0_linear" x2="1" gradientUnits="userSpaceOnUse" gradientTransform="translate(83.0833) scale(83.0833 81.25) rotate(90)">
<stop stop-color="#FF6D00"/>
<stop offset="1" stop-color="#FF1A00"/>
</linearGradient>
</defs>
</svg>
